<?xml version="1.0" encoding="utf-8"?>
<svg xmlns="http://www.w3.org/2000/svg" viewBox="436.5191 151.2931 651.4811 659.223" width="651.4811pt" height="659.223pt" xmlns:bx="https://boxy-svg.com"><defs><bx:export><bx:file format="svg" units="pt"/></bx:export></defs><path d="M9095 8705 c-415 -92 -776 -288 -1046 -571 -182 -191 -324 -446 -418 -750 -27 -86 -120 -479 -121 -509 -1 -5 -23 51 -50 125 -122 330 -277 571 -463 718 -228 180 -439 276 -712 322 -93 16 -147 20 -193 15 -89 -9 -97 -23 -89 -163 10 -189 68 -402 168 -610 121 -255 221 -360 574 -597 317 -213 440 -334 538 -530 59 -118 60 -123 67 -505 7 -334 9 -361 33 -460 14 -58 37 -138 51 -178 22 -65 23 -73 8 -67 -33 14 -742 239 -1667 529 -203 64 -377 119 -385 122 -21 8 -29 6 505 170 259 80 557 172 662 205 268 83 347 114 378 151 32 38 34 99 5 128 -38 38 -103 28 -350 -55 -196 -66 -824 -269 -1393 -450 -156 -50 -181 -61 -201 -89 -13 -17 -148 -195 -300 -394 -152 -200 -289 -382 -304 -404 -30 -46 -36 -109 -12 -132 8 -8 98 -47 200 -85 102 -39 235 -90 295 -114 l110 -44 0 -716 0 -717 25 -24 c18 -17 101 -50 290 -112 236 -77 738 -247 1297 -438 212 -72 592 -204 838 -291 152 -53 162 -56 205 -45 25 6 191 63 370 127 782 276 1751 616 1930 677 144 49 201 73 218 92 l22 25 0 649 0 648 43 15 c634 222 657 232 657 300 0 40 3 36 -226 339 -105 139 -249 332 -321 428 -163 219 -220 282 -270 299 -21 6 -456 138 -967 291 -603 182 -945 280 -973 280 -49 0 -97 -21 -107 -45 -27 -71 19 -126 140 -167 43 -15 297 -90 564 -167 652 -188 1040 -308 1040 -323 0 -4 -5 -8 -11 -8 -6 0 -466 -151 -1023 -335 -557 -184 -1017 -335 -1024 -335 -26 0 -114 205 -140 324 -27 125 -24 452 6 609 58 307 167 532 339 698 100 97 179 149 443 294 288 158 396 230 505 339 201 202 348 464 425 757 40 153 57 277 71 505 12 181 11 193 -7 230 -19 38 -20 39 -79 41 -33 1 -109 -9 -170 -22z m75 -217 c0 -136 -46 -413 -92 -558 -121 -378 -339 -635 -723 -851 -60 -34 -163 -92 -228 -128 -153 -85 -302 -197 -401 -301 -67 -70 -77 -78 -72 -53 3 15 15 82 26 148 92 524 196 833 361 1077 80 117 253 292 379 380 173 123 459 251 654 293 88 19 96 19 96 -7z m-2879 -644 c264 -50 493 -175 682 -373 181 -190 308 -463 418 -898 38 -152 41 -175 30 -200 l-13 -28 -51 60 c-133 156 -266 271 -557 480 -258 185 -389 328 -483 527 -44 93 -93 245 -107 334 -6 38 -13 79 -16 92 -5 26 -8 26 97 6z m3692 -4674 c-5 -4 -42 -19 -83 -33 -41 -14 -199 -69 -350 -122 -151 -54 -471 -164 -710 -245 -239 -81 -520 -180 -623 -219 -205 -78 -462 -171 -471 -171 -3 0 -6 16 -6 35 0 26 13 56 48 108 301 448 442 808 442 1125 0 321 -102 583 -378 971 -40 57 -71 105 -68 108 8 8 630 222 1436 493 l765 258 3 -1151 c1 -633 -1 -1154 -5 -1157z m-4153 2086 c665 -213 1427 -463 1608 -528 l112 -40 0 -1164 c0 -640 -2 -1164 -4 -1164 -2 0 -48 17 -102 37 -55 20 -585 199 -1179 397 l-1080 361 -3 1154 c-2 1095 -1 1153 15 1148 10 -2 295 -93 633 -201z m-841 -303 c1 -145 -1 -263 -3 -263 -13 0 -363 147 -365 153 -1 4 40 60 93 124 52 63 132 165 178 227 l83 111 7 -45 c3 -25 7 -163 7 -307z m5631 -235 c0 -4 -15 -11 -32 -16 -30 -8 -347 -120 -390 -137 -17 -7 -18 15 -18 371 l0 378 220 -295 c121 -162 220 -297 220 -301z m-2779 -417 c114 -191 191 -407 205 -579 12 -150 -37 -382 -121 -574 -39 -90 -171 -328 -181 -328 -2 0 -4 368 -4 818 0 937 -12 853 101 663z" style="fill: rgb(248, 248, 248);" transform="matrix(0.10000000149011612, 0, 0, -0.10000000149011612, 0, 1024)"/></svg>